<?xml version="1.0" encoding="iso-8859-1"?>
<!-- Generator: Adobe Illustrator 16.0.0, SVG Export Plug-In . SVG Version: 6.00 Build 0)  -->
<!DOCTYPE svg PUBLIC "-//W3C//DTD SVG 1.1//EN" "http://www.w3.org/Graphics/SVG/1.1/DTD/svg11.dtd">
<svg version="1.1" id="Capa_1" xmlns="http://www.w3.org/2000/svg" xmlns:xlink="http://www.w3.org/1999/xlink" x="0px" y="0px"
	 width="932.801px" height="932.801px" viewBox="0 0 932.801 932.801" style="enable-background:new 0 0 932.801 932.801;"
	 xml:space="preserve">
<g>
	<g>
		<path d="M40.351,818.5h321.6l-32.3-32.301c-27.5-27.5-27.5-72.199,0-99.699l58.399-58.4c13.3-13.299,31-20.6,49.8-20.6
			c18.801,0,36.5,7.301,49.801,20.6L552.95,693.4L784.151,462.2c9.6-9.6,21.6-16.1,34.6-19V40c0-22.1-17.9-40-40-40h-738.4
			c-22.1,0-40,17.9-40,40v738.5C0.351,800.6,18.25,818.5,40.351,818.5z M184.851,141.7c27.8-18,57.5-32.5,88.8-43.3
			C317.35,83.3,363.05,75.6,409.55,75.6s92.3,7.7,135.9,22.8c31.301,10.9,61.1,25.4,88.801,43.3c15.699,10.1,19.4,31.5,8,46.2
			L564.05,289.2c-9.799,12.7-27.6,16.1-41.398,7.9c-24.9-14.7-52.102-24.3-80.701-28.4l-32.5-146l-32.5,146
			c-28.601,4.1-55.9,13.7-80.7,28.4c-13.8,8.2-31.6,4.8-41.4-7.9l-78.1-101.3C165.351,173.1,169.15,151.8,184.851,141.7z"/>
		<path d="M862.351,483.699C854.55,475.9,844.351,472,834.05,472c-5.199,0-10.398,1-15.299,3c-4.701,2-9.201,4.801-13,8.699
			L553.05,736.5l-86.799-86.801c-7.8-7.799-18-11.699-28.3-11.699s-20.5,3.9-28.3,11.699l-58.4,58.4c-15.6,15.6-15.6,40.9,0,56.6
			l53.8,53.801l90.5,90.5c15.201,15.199,35.9,23.801,57.5,23.801c21.602,0,42.201-8.602,57.5-23.801l310.201-310.301
			c15.6-15.6,15.6-40.898,0-56.6L862.351,483.699z"/>
	</g>
</g>
<g>
</g>
<g>
</g>
<g>
</g>
<g>
</g>
<g>
</g>
<g>
</g>
<g>
</g>
<g>
</g>
<g>
</g>
<g>
</g>
<g>
</g>
<g>
</g>
<g>
</g>
<g>
</g>
<g>
</g>
</svg>
